<svg xmlns="http://www.w3.org/2000/svg" width="32" height="32" viewBox="0 0 32 32">
  <rect width="32" height="32" rx="8" fill="url(#grad)"/>
  <defs>
    <linearGradient id="grad" x1="0%" y1="0%" x2="100%" y2="100%">
      <stop offset="0%" style="stop-color:hsl(175, 80%, 40%)"/>
      <stop offset="100%" style="stop-color:hsl(175, 80%, 30%)"/>
    </linearGradient>
  </defs>
  <path d="M16 8a5.5 5.5 0 0 0-4 1.7c-1.3 1.4-2 3.3-2 5.3 0 1.5.4 2.9 1.2 4.1.5.8.8 1.7.8 2.6V23a1 1 0 0 0 1 1h6a1 1 0 0 0 1-1v-1.3c0-.9.3-1.8.8-2.6.8-1.2 1.2-2.6 1.2-4.1 0-2-.7-3.9-2-5.3A5.5 5.5 0 0 0 16 8zm-1.5 15.5h3M14 22h4" fill="none" stroke="white" stroke-width="1.5" stroke-linecap="round"/>
  <circle cx="14" cy="14" r="1" fill="white" opacity="0.8"/>
  <circle cx="18" cy="14" r="1" fill="white" opacity="0.8"/>
  <path d="M13 17c0 0 1.5 1.5 3 1.5s3-1.5 3-1.5" fill="none" stroke="white" stroke-width="1" stroke-linecap="round" opacity="0.6"/>
</svg>
